<?xml version="1.0" standalone="no"?>
<!DOCTYPE svg PUBLIC "-//W3C//DTD SVG 20010904//EN"
 "http://www.w3.org/TR/2001/REC-SVG-20010904/DTD/svg10.dtd">
<svg version="1.0" xmlns="http://www.w3.org/2000/svg"
 width="100.000000pt" height="100.000000pt" viewBox="0 0 100.000000 100.000000"
 preserveAspectRatio="xMidYMid meet">
<metadata>
Created by potrace 1.11, written by Peter Selinger 2001-2013
</metadata>
<g transform="translate(0.000000,100.000000) scale(0.100000,-0.100000)"
fill="#000000" stroke="none">
<path d="M250 840 l-245 -98 -3 -246 -2 -246 30 0 c22 0 30 5 31 18 0 9 1 99
1 199 l-1 182 47 -15 c26 -9 55 -18 64 -21 15 -5 17 -20 16 -135 -2 -153 -5
-150 127 -194 147 -50 308 -39 446 31 l49 25 1 58 c0 31 0 91 0 133 l0 76 95
33 95 33 -3 34 -3 35 -235 94 c-129 52 -242 96 -250 99 -8 2 -125 -40 -260
-95z m445 -46 c105 -42 194 -79 198 -83 4 -4 -14 -15 -40 -24 -123 -40 -335
-116 -340 -120 -2 -3 -75 19 -161 50 -87 30 -179 62 -206 71 -37 12 -45 18
-34 25 19 12 370 155 383 156 6 1 96 -33 200 -75z m-311 -255 l116 -42 118 42
c64 22 120 41 125 41 4 0 7 -45 7 -100 l0 -100 -37 -19 c-121 -61 -310 -59
-432 3 l-31 17 0 99 c0 55 4 100 9 100 5 0 61 -19 125 -41z"/>
<path d="M12 178 c-26 -26 -2 -64 30 -47 22 12 24 45 2 53 -20 8 -18 8 -32 -6z"/>
</g>
</svg>
